<svg xmlns="http://www.w3.org/2000/svg" xmlns:xlink="http://www.w3.org/1999/xlink" viewBox="0 0 300 300" width="300" height="300" preserveAspectRatio="xMidYMid meet" style="width: 100%; height: 100%; transform: translate3d(0px, 0px, 0px); content-visibility: visible;"><defs><clipPath id="__lottie_element_425"><rect width="300" height="300" x="0" y="0"></rect></clipPath></defs><g clip-path="url(#__lottie_element_425)"><g transform="matrix(1,0,0,1,60,94)" opacity="1" style="display: block;"><g opacity="1" transform="matrix(1,0,0,1,0,0)"><path stroke-linecap="round" stroke-linejoin="round" fill-opacity="0" stroke="rgb(0,0,0)" stroke-opacity="1" stroke-width="12" d=" M6,6 C6,6 174,6 174,6"></path></g></g><g transform="matrix(1,0,0,1,60,133)" opacity="1" style="display: block;"><g opacity="1" transform="matrix(1,0,0,1,0,0)"><path stroke-linecap="round" stroke-linejoin="round" fill-opacity="0" stroke="rgb(0,0,0)" stroke-opacity="1" stroke-width="12" d=" M6,6 C6,6 154.81199645996094,6 172.32400512695312,6"></path></g></g><g transform="matrix(1,0,0,1,60,173)" opacity="1" style="display: block;"><g opacity="1" transform="matrix(1,0,0,1,0,0)"><path stroke-linecap="round" stroke-linejoin="round" fill-opacity="0" stroke="rgb(0,0,0)" stroke-opacity="1" stroke-width="12" d=" M6,6 C6,6 90.1760025024414,6 139.36099243164062,6"></path></g></g><g transform="matrix(1,0,0,1,3,19.000015258789062)" opacity="1" style="display: block;"><g opacity="1" transform="matrix(1,0,0,1,147.5,142.33299255371094)"><path stroke-linecap="round" stroke-linejoin="round" fill-opacity="0" stroke="rgb(0,0,0)" stroke-opacity="1" stroke-width="12" d=" M117.5,-86.8010025024414 C117.5,-86.8010025024414 117.5,39.51100158691406 117.5,39.51100158691406 C117.5,53.66899871826172 105.37999725341797,65.66699981689453 90.83000183105469,65.66699981689453 C90.83000183105469,65.66699981689453 -19.979999542236328,65.66699981689453 -19.979999542236328,65.66699981689453 C-19.979999542236328,65.66699981689453 -68.5,112.33300018310547 -68.5,112.33300018310547 C-68.5,112.33300018310547 -68.5,65.66699981689453 -68.5,65.66699981689453 C-68.5,65.66699981689453 -91.16999816894531,65.66699981689453 -91.16999816894531,65.66699981689453 C-105.70999908447266,65.66699981689453 -117.5,53.66899871826172 -117.5,39.51100158691406 C-117.5,39.51100158691406 -117.5,-86.8010025024414 -117.5,-86.8010025024414 C-117.5,-100.9489974975586 -105.70999908447266,-112.33300018310547 -91.16999816894531,-112.33300018310547 C-91.16999816894531,-112.33300018310547 90.83000183105469,-112.33300018310547 90.83000183105469,-112.33300018310547 C105.37999725341797,-112.33300018310547 117.5,-100.9489974975586 117.5,-86.8010025024414z"></path></g></g></g></svg>